<svg xmlns="http://www.w3.org/2000/svg" viewBox="0 0 760 480"><rect width="760" height="480" rx="28" fill="#0b1220"/><rect x="34" y="34" width="692" height="412" rx="22" fill="#111b2e"/><text x="66" y="84" font-family="Arial" font-size="22" fill="#fff">Visão gerencial</text><rect x="66" y="110" width="190" height="92" rx="16" fill="#18263f"/><rect x="278" y="110" width="190" height="92" rx="16" fill="#18263f"/><rect x="490" y="110" width="190" height="92" rx="16" fill="#18263f"/><g fill="#94a3b8" font-family="Arial" font-size="13"><text x="86" y="138">Receita</text><text x="298" y="138">Margem</text><text x="510" y="138">Liquidez</text></g><g fill="#fff" font-family="Arial" font-size="27" font-weight="700"><text x="86" y="178">R$ 4,82M</text><text x="298" y="178">18,4%</text><text x="510" y="178">1,62</text></g><rect x="66" y="226" width="390" height="186" rx="16" fill="#18263f"/><path d="M92 370 C145 340 154 350 192 318 S260 345 306 282 S370 310 432 254" fill="none" stroke="#60a5fa" stroke-width="7" stroke-linecap="round"/><path d="M92 378h340M92 335h340M92 292h340M92 249h340" stroke="#263957"/><rect x="478" y="226" width="202" height="186" rx="16" fill="#18263f"/><circle cx="579" cy="319" r="62" fill="none" stroke="#334155" stroke-width="20"/><path d="M579 257a62 62 0 0 1 55 91" fill="none" stroke="#7c3aed" stroke-width="20" stroke-linecap="round"/><text x="551" y="325" font-family="Arial" font-size="22" fill="#fff">74%</text></svg>