<svg xmlns="http://www.w3.org/2000/svg" viewBox="0 0 760 480"><defs><linearGradient id="g" x1="0" x2="1"><stop stop-color="#2563eb"/><stop offset="1" stop-color="#7c3aed"/></linearGradient></defs><rect width="760" height="480" rx="28" fill="#f6f8fc"/><rect x="42" y="54" width="180" height="150" rx="18" fill="#fff" stroke="#dfe5ee"/><path d="M75 92h85M75 120h110M75 148h90" stroke="#98a2b3" stroke-width="10" stroke-linecap="round"/><text x="75" y="180" font-family="Arial" font-size="18" fill="#0b1220">Arquivo ECD</text><path d="M222 130h70" stroke="url(#g)" stroke-width="8"/><path d="m280 112 22 18-22 18" fill="none" stroke="#7c3aed" stroke-width="8"/><rect x="306" y="54" width="180" height="150" rx="18" fill="#fff" stroke="#dfe5ee"/><circle cx="396" cy="108" r="30" fill="#eef4ff"/><path d="M380 108h32M396 92v32" stroke="#2563eb" stroke-width="7" stroke-linecap="round"/><text x="345" y="174" font-family="Arial" font-size="18" fill="#0b1220">Validação</text><path d="M486 130h70" stroke="url(#g)" stroke-width="8"/><path d="m544 112 22 18-22 18" fill="none" stroke="#7c3aed" stroke-width="8"/><rect x="572" y="54" width="146" height="150" rx="18" fill="#0b1220"/><text x="598" y="105" font-family="Arial" font-size="17" fill="#fff">Dados</text><text x="598" y="136" font-family="Arial" font-size="17" fill="#a5b4fc">estruturados</text><text x="598" y="167" font-family="Arial" font-size="17" fill="#fff">e analisáveis</text><rect x="76" y="264" width="608" height="142" rx="18" fill="#fff" stroke="#dfe5ee"/><rect x="102" y="292" width="160" height="18" rx="9" fill="#dbe4f0"/><rect x="102" y="329" width="245" height="12" rx="6" fill="#eaecf0"/><rect x="102" y="356" width="190" height="12" rx="6" fill="#eaecf0"/><rect x="385" y="292" width="120" height="78" rx="14" fill="#eef4ff"/><path d="M405 346l22-24 20 14 26-32 22 20" fill="none" stroke="#2563eb" stroke-width="6"/></svg>